<svg version="1.1" viewBox="0.0 0.0 516.9291338582677 417.4146981627297" fill="none" stroke="none" stroke-linecap="square" stroke-miterlimit="10" xmlns:xlink="http://www.w3.org/1999/xlink" xmlns="http://www.w3.org/2000/svg"><clipPath id="p.0"><path d="m0 0l516.92914 0l0 417.4147l-516.92914 0l0 -417.4147z" clip-rule="nonzero"/></clipPath><g clip-path="url(#p.0)"><path fill="#ffffff" d="m0 0l516.92914 0l0 417.4147l-516.92914 0z" fill-rule="evenodd"/><path fill="#213140" d="m264.67322 81.96063l0 279.937l-212.50392 0l0 -279.937z" fill-rule="evenodd"/><path fill="#ffffff" d="m145.99081 112.272964l0 103.055115l-77.95276 0l0 -103.055115z" fill-rule="evenodd"/><path fill="#ffffff" d="m145.99081 237.77165l0 109.32283l-77.95276 0l0 -109.32283z" fill-rule="evenodd"/><path fill="#ffffff" d="m246.54199 237.77165l0 109.32283l-77.95276 0l0 -109.32283z" fill-rule="evenodd"/><path fill="#ffffff" d="m246.54199 110.77165l0 104.566925l-77.95276 0l0 -104.566925z" fill-rule="evenodd"/><path fill="#213140" d="m320.6212 81.96056l133.51181 289.35434l-35.275604 16.283447l-133.51181 -289.3543z" fill-rule="evenodd"/><path fill="#213140" d="m251.98557 81.96063l67.90552 0l0 28.818893l-67.90552 0z" fill-rule="evenodd"/><path fill="#213140" d="m251.98557 215.32808l124.8819 0l0 22.456696l-124.8819 0z" fill-rule="evenodd"/><path fill="#ffffff" d="m393.96982 361.89764l67.90552 0l0 28.818878l-67.90552 0z" fill-rule="evenodd"/></g></svg>